# xmcd CD database file
#
# Track frame offsets:
#	150
#	12177
#	27257
#	42830
#	59655
#	73417
#	89302
#	114692
#	130232
#	157352
#
# Disc length: 2406 seconds
#
# Revision: 1
# Processed by: cddbd v1.5.2PL0 Copyright (c) Steve Scherf et al.
# Submitted via: CDex 1.70beta2
#
DISCID=9109640a
DTITLE=Lou Donaldson - Lou Donaldson
DYEAR=1995
DGENRE=Jazz
TTITLE0=If I Love Again
TTITLE1=Down Home
TTITLE2=The Best Things In Life Are Free
TTITLE3=Lou's Blues
TTITLE4=Cheek To Cheek
TTITLE5=Sweet Juice
TTITLE6=The Stroller
TTITLE7=Roccus
TTITLE8=Caracas
TTITLE9=Moe's Bluff
EXTD=YEAR: 1995
EXTT0=
EXTT1=
EXTT2=
EXTT3=
EXTT4=
EXTT5=
EXTT6=
EXTT7=
EXTT8=
EXTT9=
PLAYORDER=
